<!DOCTYPE svg PUBLIC "-//W3C//DTD SVG 1.1//EN" "http://www.w3.org/Graphics/SVG/1.1/DTD/svg11.dtd">

<!-- Uploaded to: SVG Repo, www.svgrepo.com, Transformed by: SVG Repo Mixer Tools -->
<svg fill="#FFE2EF" version="1.1" id="Capa_1" xmlns="http://www.w3.org/2000/svg" xmlns:xlink="http://www.w3.org/1999/xlink" width="32px" height="32px" viewBox="0 0 32.001 32.001" xml:space="preserve">

<g id="SVGRepo_bgCarrier" stroke-width="0"/>

<g id="SVGRepo_tracerCarrier" stroke-linecap="round" stroke-linejoin="round"/>

<g id="SVGRepo_iconCarrier"> <g> <path d="M30.714,15.465c-1.158-1.036-2.841-1.292-4.07-1.322c0.935-0.472,1.846-0.876,2.635-1.17 c0.307-0.147,0.507-0.351,0.622-0.604c0.428-0.934-0.283-2.541-1.137-4.467c-0.188-0.427-0.386-0.87-0.577-1.323 c-0.349-0.824-0.653-1.695-0.95-2.537c-0.668-1.897-1.072-2.985-1.636-3.277c-0.485-0.254-1.271-0.404-2.235,0.337 c-2.808,2.155-5.396,10.55-5.725,13.827c-0.193-0.122-0.407-0.226-0.616-0.269c-0.007-0.404,0.036-0.842,0.08-1.271 c0.103-1.002,0.207-2.037-0.344-2.653l-0.003,0.003c-0.07-0.073-0.167-0.12-0.276-0.12c-0.212,0-0.384,0.172-0.384,0.383 c0,0.212,0.172,0.384,0.384,0.384c0.111,0,0.209-0.049,0.279-0.125c0.228,0.544,0.167,1.3,0.085,2.103 c-0.044,0.43-0.087,0.867-0.082,1.278c-0.146,0.012-0.287,0.063-0.413,0.172c-0.061,0.053-0.106,0.112-0.146,0.177 c-0.595-0.37-1.07-0.621-1.479-0.837c-0.691-0.362-1.148-0.606-1.618-1.134c0.019-0.007,0.038-0.008,0.057-0.018 c0.19-0.107,0.258-0.349,0.15-0.54c-0.106-0.19-0.348-0.258-0.539-0.15c-0.189,0.106-0.258,0.349-0.15,0.538 c0.025,0.045,0.059,0.082,0.096,0.112c0.573,0.729,1.102,1.011,1.883,1.422c0.412,0.217,0.896,0.473,1.497,0.849 c-0.05,0.194-0.044,0.406-0.01,0.607c-3.198-1.057-11.756-2.156-14.852-0.518c-1.075,0.569-1.266,1.343-1.237,1.894 c0.031,0.633,0.852,1.453,2.3,2.851c0.643,0.62,1.307,1.26,1.911,1.92c0.332,0.363,0.653,0.727,0.963,1.075 c1.396,1.576,2.562,2.893,3.588,2.893c0.279,0,0.548-0.097,0.808-0.312c0.597-0.598,1.343-1.256,2.161-1.908 c-0.484,1.13-0.952,2.767-0.493,4.25c0.358,1.156,1.217,2.023,2.551,2.576c1.572,0.649,2.901,0.885,4.004,0.885 c2.211,0,3.519-0.938,4.071-1.336c0.056-0.04,0.104-0.075,0.144-0.101c0.431-0.288,0.339-1.09,0.09-2.873 c-0.118-0.851-0.292-2.104-0.246-2.871c0.651,0.599,1.314,0.205,0.807-0.782c0.693,0.186,1.948,0.985,2.765,1.506 c1.519,0.968,2.209,1.385,2.649,1.112c0.041-0.024,0.092-0.054,0.151-0.088c0.591-0.337,1.988-1.137,2.908-3.146 c0.46-1.003,0.8-2.308,0.862-4.009C32.047,17.411,31.617,16.271,30.714,15.465z M28.322,11.168 c-1.706,0.858-4.853,2.47-5.954,3.212c-1.041,0.701-2.222,2.144-2.895,3.028c-0.043-0.079-0.085-0.158-0.126-0.232 c0.712-1.059,2.458-3.643,3.784-5.545c0.471-0.002,2.654-0.104,5.029-1.62C28.218,10.395,28.27,10.792,28.322,11.168z M27.55,7.694 c0.153,0.431,0.274,0.796,0.354,1.059c0.077,0.252,0.143,0.559,0.197,0.888c-2.026,1.33-3.964,1.586-4.72,1.634 c0.418-0.597,0.781-1.104,1.035-1.441C25.278,8.687,26.727,8.008,27.55,7.694z M25.867,3.728c0.118,0.232,0.234,0.469,0.348,0.708 c-0.508,0.323-1.23,0.934-1.944,2.05c-0.512,0.803-1.072,1.759-1.635,2.764h-0.002c-0.007,0.014-0.014,0.027-0.021,0.041 c-1.547,2.767-3.101,5.885-3.684,7.123c-0.04-0.072-0.079-0.143-0.116-0.207c0.394-1.123,1.438-4.085,2.475-6.83 C22.185,7.896,24.522,4.403,25.867,3.728z M19.01,20.416c-0.891,0.27-4.896,1.578-6.819,4.046c0.316-0.859,0.701-1.517,0.814-1.7 c2.071-1.497,4.316-2.753,5.667-2.822C18.785,20.099,18.896,20.258,19.01,20.416z M22.203,3.603 c0.332-0.551,0.672-1.031,1.016-1.413c0.71-0.169,1.21-0.088,1.581,0.125c-0.509,0.3-1.094,0.809-1.614,1.677 c-0.207,0.345-0.48,0.93-0.794,1.66C22.285,5.146,22.154,4.344,22.203,3.603z M21.851,4.219c0.039,0.909,0.25,1.75,0.312,1.976 c-1.239,2.99-2.934,7.77-3.579,9.616c-0.116-0.193-0.199-0.316-0.237-0.348c-0.015-0.012-0.033-0.027-0.051-0.042 C18.336,13.558,19.901,7.805,21.851,4.219z M16.38,16.677c0.047,0.066,0.148,0.213,0.297,0.426 c-1.888-0.176-7.03-0.637-10.308-0.755c-0.18-0.149-0.857-0.691-1.668-1.105C8.785,14.96,14.686,15.938,16.38,16.677z M1.745,17.131c-0.039-0.429,0.096-0.915,0.545-1.49c0.49-0.153,1.068-0.263,1.707-0.335c0.693,0.265,1.37,0.717,1.784,1.022 c-0.793-0.019-1.439-0.014-1.84,0.031C2.934,16.473,2.229,16.791,1.745,17.131z M3.083,19.299c-0.17-0.201-0.336-0.405-0.498-0.609 c1.173-0.942,5.323-1.613,7.041-1.813c2.988,0.202,6.188,0.494,7.313,0.601c0.041,0.06,0.085,0.121,0.13,0.185 c-1.323,0.014-4.863,0.126-8.071,0.386c-0.016,0.001-0.03,0.001-0.046,0.003v0.001c-1.148,0.093-2.252,0.204-3.193,0.337 C4.444,18.568,3.588,18.973,3.083,19.299z M6.305,22.634C6.1,22.45,5.818,22.189,5.492,21.869c0.627-0.618,1.848-1.65,3.248-1.959 c0.411-0.09,1.023-0.208,1.74-0.34c-0.357,0.666-1.396,2.321-3.449,3.61C6.753,22.994,6.501,22.809,6.305,22.634z M8.33,24.019 c-0.32-0.204-0.661-0.416-0.985-0.628c2.366-1.528,3.368-3.473,3.566-3.898c2.3-0.417,5.407-0.933,6.645-1.138 c0.05,0.069,0.099,0.14,0.149,0.213c-1.083,0.242-2.899,0.717-3.977,1.373C12.595,20.634,9.82,22.824,8.33,24.019z M15.502,29.327 c-0.261,0.108-0.521,0.249-0.767,0.438c-0.92-0.268-1.704-0.661-2.208-1.075c0.832-1.001,2.203-1.788,3.398-2.333 C16.073,27.184,16.204,28.85,15.502,29.327z M14.703,26.573c-0.906,0.5-1.802,1.129-2.43,1.88c-0.076-0.08-0.141-0.161-0.193-0.24 c-0.068-0.14-0.13-0.282-0.177-0.435c-0.01-0.03-0.014-0.062-0.022-0.093c2.144-2.003,3.438-4.951,3.636-5.421 c1.725-0.944,3.408-1.46,3.706-1.547c0.076,0.105,0.152,0.214,0.229,0.319L19.347,20.9c-0.018,0.014-1.837,1.409-3.242,2.643 C14.833,24.658,14.71,26.15,14.703,26.573z M19.936,29.482c-0.507,0.254-1.044,0.42-1.591,0.519 c-0.394-0.738-0.896-1.893-0.758-2.731c0.315,0.053,1.844,0.354,2.377,1.217c0.068,0.279,0.157,0.551,0.266,0.812 C20.137,29.36,20.042,29.423,19.936,29.482z M19.84,27.828c-0.714-0.602-1.801-0.835-2.155-0.896 c0.008-0.016,0.011-0.032,0.02-0.047c0.567-1.105,1.747-4.108,2.184-5.234c0.183,0.255,0.359,0.502,0.528,0.735 C20.198,23.107,19.524,25.594,19.84,27.828z M20.283,18.932c0.588-1.208,2.691-2.755,4.949-4.033 c0.216-0.026,0.973-0.104,1.887-0.033c-3.142,0.745-6.084,4.016-6.568,4.575C20.461,19.27,20.372,19.101,20.283,18.932z M20.765,19.851c0.38-0.46,1.551-1.819,2.972-2.877c0.509,0.016,3.729,0.064,6.441-1.05c0.024,0.021,0.052,0.036,0.075,0.06 c0.118,0.105,0.223,0.221,0.321,0.341c0.05,0.081,0.097,0.174,0.139,0.276c-0.944,0.258-1.889,0.811-2.721,1.427 c-0.39-0.168-1.798-0.679-3.339,0.013c-1.374,0.615-2.955,1.433-3.851,1.886C20.791,19.899,20.777,19.874,20.765,19.851z M26.996,23.222c-2.183-1.397-5.206-1.749-5.396-1.771c-0.128-0.246-0.263-0.504-0.399-0.77c1.05,0.062,4.524,0.262,5.825,0.203 c0.019-0.002,0.034,0.003,0.053,0.003C26.985,21.236,26.746,22.321,26.996,23.222z M28.458,23.996 c-0.1,0.071-0.194,0.133-0.291,0.188c-0.191-0.206-0.4-0.4-0.627-0.577c-0.563-0.846-0.2-2.359-0.118-2.669 c0.822,0.224,1.662,1.161,2.169,1.826C29.275,23.223,28.9,23.641,28.458,23.996z M30.88,19.387 c-0.273,0.146-0.51,0.322-0.717,0.516c-0.728,0.438-2.188-0.375-2.879-0.853c0.992-0.859,2.278-1.778,3.536-2.118 C30.987,17.562,31.02,18.439,30.88,19.387z"/> </g> </g>

</svg>