<!DOCTYPE svg PUBLIC "-//W3C//DTD SVG 1.1//EN" "http://www.w3.org/Graphics/SVG/1.1/DTD/svg11.dtd">

<!-- Uploaded to: SVG Repo, www.svgrepo.com, Transformed by: SVG Repo Mixer Tools -->
<svg fill="#FAB2C0" height="32px" width="32px" version="1.1" id="Capa_1" xmlns="http://www.w3.org/2000/svg" xmlns:xlink="http://www.w3.org/1999/xlink" viewBox="0 0 490.523 490.523" xml:space="preserve" transform="rotate(270)" stroke="#FAB2C0">

<g id="SVGRepo_bgCarrier" stroke-width="0"/>

<g id="SVGRepo_tracerCarrier" stroke-linecap="round" stroke-linejoin="round"/>

<g id="SVGRepo_iconCarrier"> <g> <path d="M392.458,90.085c0-42.7-19.2-74.9-49-86.5c-33.6-13.2-71.9,12.4-93.8,38.5c-26.1-22.9-84.2-57.2-133.5,12.5 c-27,38.3-31.3,100.1-16.7,163.7c14.9,65.5,49.5,119.4,89.8,143c-23.5,27.5-80.3,81.4-169,85.3c-11.5,0-19.8,9.4-19.8,20.9 c1,11.5,10.4,19.8,20.9,19.8c37.7-1.7,70.4-10.8,98.1-23.2c39.9-2.4,87.8,3.9,95.8,17c4.2,6.3,15.4,13.8,28.1,6.3 c9.7-5.7,12.5-18.8,6.3-28.1c-12.5-19.8-40.4-29.2-68.4-33.3c23.8-19.3,39.9-38.4,48.2-49.3c7.9,1.6,16.3,2.3,25.4,2.3 c44.8,0,97-20.9,143.9-58.4c52.1-40.7,85-93.9,90.7-139.7C493.658,146.385,477.558,84.585,392.458,90.085z M449.758,177.585 c-4.2,34.4-33.4,78.2-76.1,111.5c-38.6,30.2-83.4,50.3-118.8,49c-58.7-2.2-99-58.4-115.7-129.3c-11.5-51.1-7.3-102.2,11.5-132.4 c8.3-11.5,35.6-47.6,86.5,9.4c15.5,14.9,29.2,3.1,32.3-2.1c17.7-29.2,43.8-46.9,60.5-41.7s25,34.4,20.9,68.8 c-1,6.3,2.4,25.5,24,22.9C384.158,131.785,454.458,117.885,449.758,177.585z"/> </g> </g>

</svg>